<?xml version="1.0" encoding="utf-8" ?><svg xmlns="http://www.w3.org/2000/svg" xmlns:xlink="http://www.w3.org/1999/xlink" width="1024" height="1024" viewBox="0 0 1024 1024"><path fill="#F39BC8" d="M263.998 157.34L264.022 156.801C265.508 129.193 281.098 100.22 301.745 82.0345C325.408 60.9893 356.583 50.4222 388.165 52.7423C419.22 54.9706 448.148 69.3336 468.695 92.725C483.49 109.565 492.988 130.397 495.999 152.61C497.429 162.928 497.27 178.631 497.363 189.418L497.439 252.363L497.4 445.458L497.315 706.623L497.031 795.879C497.031 815.144 497.452 836.63 496.477 855.677C494.595 892.458 471.956 932.152 444.27 956.237C410.511 985.604 365.351 1001.78 320.451 998.213C293.279 996.053 266.877 984.059 242.802 971.683C205.883 952.706 167.33 930 140.172 897.953C120.637 874.902 106.678 846.883 102.208 816.848C101.375 811.252 100.568 802.497 100.988 796.854C99.7279 787.495 105.121 763.726 108.241 753.967C108.774 750.9 112.179 742.177 113.72 739.387C113.772 738.475 115.183 735.541 115.633 734.505C111.45 734.034 102.781 730.794 98.8907 729.15C72.5651 718.021 49.5943 696.251 38.901 669.524L37.2999 665.975C36.1235 662.937 35.1539 660.139 34.123 657.046C31.3197 647.174 28.7398 635.277 28.8095 625.008C29.014 594.876 27.7097 563.742 28.8538 533.696C28.9253 532.047 29.0249 530.4 29.1525 528.754C31.7595 495.68 45.2027 466.051 65.4282 440.049C69.4488 434.881 75.5793 427.567 80.4793 423.402C85.42 417.587 97.9432 407.481 104.368 403.621C105.876 401.766 118.781 395.039 121.938 393.327C116.97 384.911 111.557 364.494 110.115 354.664C97.4459 268.318 155.906 190.389 241.441 176.492C247.87 174.864 256.797 174.476 263.486 174.366C263.402 169.228 263.183 162.336 263.998 157.34Z"/><path fill="#5A1B62" d="M121.938 393.327C123.101 395.062 126.592 401.705 127.234 403.573C152.416 445.587 178.472 465.353 225.034 479.785C227.506 482.252 233.731 481.845 236.845 483.255C238.08 483.814 238.163 489.311 238.19 490.924C238.457 506.97 237.271 523.675 238.041 539.667C236.337 572.884 256.343 604.549 286.553 617.84C311.157 628.665 337.173 625.37 363.265 625.667C375.072 625.845 387.43 623.732 398.02 630.376C408.947 637.291 417.834 647.304 427.076 656.25C434.075 663.026 440.948 670.074 447.774 677.012C466.373 695.916 479.524 711 480.93 738.529L481.028 810.789C481.04 825.244 481.443 841.564 480.524 855.865C477.921 870.293 475.802 881.403 469.09 894.894C467.896 898.462 465.132 903.238 463.219 906.582C452.456 894.994 441.735 881.999 431.65 869.784C426.999 864.151 420.031 856.642 415.886 850.954C410.011 845.219 404.334 837.903 396.798 834.452C393.895 833.122 391.327 833.379 388.208 833.42C382.814 833.639 375.971 833.641 370.623 833.17C358.424 832.07 346.544 828.664 335.616 823.131C299.898 804.802 302.795 778.157 278.835 750.215C275.551 746.385 268.375 739.166 263.636 738.579C254.342 737.427 240.757 737.969 231.284 737.984L175.109 738.063C161.074 738.082 147.337 738.389 133.34 737.262C130.534 736.356 118.964 734.925 115.633 734.505C111.45 734.034 102.781 730.794 98.8907 729.15C72.5651 718.021 49.5943 696.251 38.901 669.524L37.2999 665.975C36.1235 662.937 35.1539 660.139 34.123 657.046C31.3197 647.174 28.7398 635.277 28.8095 625.008C29.014 594.876 27.7097 563.742 28.8538 533.696C28.9253 532.047 29.0249 530.4 29.1525 528.754C31.7595 495.68 45.2027 466.051 65.4282 440.049C69.4488 434.881 75.5793 427.567 80.4793 423.402C85.42 417.587 97.9432 407.481 104.368 403.621C105.876 401.766 118.781 395.039 121.938 393.327Z"/><path fill="#D154B9" d="M80.4793 423.402C85.42 417.587 97.9432 407.481 104.368 403.621C102.412 408.091 96.8325 407.536 96.191 412.357C96.7746 413.671 96.7095 413.892 97.8029 414.754C99.8544 413.158 101.981 410.827 104.381 410.605L105.149 410.927C106.375 414.162 107.201 416.309 108.777 419.374L104.998 422.475C103.277 423.876 103.004 423.98 102.08 425.929C70.8006 454.241 53.817 479.938 46.3301 522.035C45.8047 526.197 45.466 529.735 45.5097 533.954L45.1006 592.453C45.0367 610.101 44.0603 631.434 48.1961 648.178C52.2492 664.737 60.6745 679.904 72.5918 692.094C95.1266 715.057 120.891 722.395 152.224 722.546L227.187 722.468C238.258 722.437 256.748 721.526 267.073 723.476C283.981 726.669 301.47 753.296 308.251 767.388C317.451 786.508 324.521 802.495 345.447 811.081C357.254 816.297 367.402 818.227 380.512 818.429C388.963 818.559 398.784 817.432 405.564 823.63C407.034 826.184 417.016 835.425 420.1 838.823C423.576 842.654 429.409 849.861 432.785 853.263C433.672 860.101 434.867 861.324 431.264 867.646C428.846 864.803 418.676 851.442 416.018 850.941C415.974 850.933 415.93 850.949 415.886 850.954C410.011 845.219 404.334 837.903 396.798 834.452C393.895 833.122 391.327 833.379 388.208 833.42C382.814 833.639 375.971 833.641 370.623 833.17C358.424 832.07 346.544 828.664 335.616 823.131C299.898 804.802 302.795 778.157 278.835 750.215C275.551 746.385 268.375 739.166 263.636 738.579C254.342 737.427 240.757 737.969 231.284 737.984L175.109 738.063C161.074 738.082 147.337 738.389 133.34 737.262C130.534 736.356 118.964 734.925 115.633 734.505C111.45 734.034 102.781 730.794 98.8907 729.15C72.5651 718.021 49.5943 696.251 38.901 669.524L37.2999 665.975C36.1235 662.937 35.1539 660.139 34.123 657.046C31.3197 647.174 28.7398 635.277 28.8095 625.008C29.014 594.876 27.7097 563.742 28.8538 533.696C28.9253 532.047 29.0249 530.4 29.1525 528.754C31.7595 495.68 45.2027 466.051 65.4282 440.049C69.4488 434.881 75.5793 427.567 80.4793 423.402Z"/><path fill="#F39BC8" d="M80.4793 423.402C85.42 417.587 97.9432 407.481 104.368 403.621C102.412 408.091 96.8325 407.536 96.191 412.357C96.7746 413.671 96.7095 413.892 97.8029 414.754C99.8544 413.158 101.981 410.827 104.381 410.605C103.448 411.715 98.1398 416.551 96.965 417.253C93.4884 419.33 81.3643 432.391 79.1246 432.904C40.4852 475.399 31.9346 516.73 34.6593 572.464C35.5414 590.507 33.8237 610.264 34.6724 628.567C35.7288 657.493 48.3218 684.792 69.6405 704.371C103.143 734.872 136.57 733.301 177.795 733.146L235.751 732.973C243.583 732.945 261.762 731.943 268.271 735.273C294.688 748.79 300.321 785.388 319.181 805.384C333.717 820.797 359.197 829.123 379.954 828.656C384.798 828.548 389.861 828.272 394.634 828.952C399.034 829.724 411.865 839.793 413.197 843.246C406.443 844.867 402.215 829.546 388.208 833.42C382.814 833.639 375.971 833.641 370.623 833.17C358.424 832.07 346.544 828.664 335.616 823.131C299.898 804.802 302.795 778.157 278.835 750.215C275.551 746.385 268.375 739.166 263.636 738.579C254.342 737.427 240.757 737.969 231.284 737.984L175.109 738.063C161.074 738.082 147.337 738.389 133.34 737.262C130.534 736.356 118.964 734.925 115.633 734.505C111.45 734.034 102.781 730.794 98.8907 729.15C72.5651 718.021 49.5943 696.251 38.901 669.524L37.2999 665.975C36.1235 662.937 35.1539 660.139 34.123 657.046C31.3197 647.174 28.7398 635.277 28.8095 625.008C29.014 594.876 27.7097 563.742 28.8538 533.696C28.9253 532.047 29.0249 530.4 29.1525 528.754C31.7595 495.68 45.2027 466.051 65.4282 440.049C69.4488 434.881 75.5793 427.567 80.4793 423.402Z"/><path fill="#C2498F" d="M80.4793 423.402C85.42 417.587 97.9432 407.481 104.368 403.621C102.412 408.091 96.8325 407.536 96.191 412.357C96.7746 413.671 96.7095 413.892 97.8029 414.754C99.8544 413.158 101.981 410.827 104.381 410.605C103.448 411.715 98.1398 416.551 96.965 417.253C93.4884 419.33 81.3643 432.391 79.1246 432.904C82.3315 429.077 83.5538 426.905 87.4424 423.218C89.4608 421.304 94.3369 417.772 95.4058 416.394L94.4494 413.399C90.5398 413.539 85.131 421.578 80.4793 423.402Z"/><path fill="#C2498F" d="M46.3301 522.035C62.7662 537.813 79.4992 555.222 95.4573 571.531L153.708 630.494C167.013 625.971 180.104 630.17 184.7 644.331C186.606 650.339 185.948 656.866 182.881 662.371C176.876 673.046 162.615 676.823 152.036 670.495C141.19 664.008 137.416 649.602 144.3 638.814C144.922 637.855 145.571 636.913 146.247 635.991L77.8256 566.702L58.1375 547.009C54.4897 543.388 48.5564 537.791 45.5097 533.954C45.466 529.735 45.8047 526.197 46.3301 522.035Z"/><path fill="#5A1B62" d="M159.693 636.77C167.564 634.712 175.616 639.417 177.686 647.285C179.757 655.153 175.064 663.212 167.199 665.294C159.317 667.381 151.237 662.676 149.162 654.791C147.087 646.906 151.804 638.834 159.693 636.77Z"/><path fill="#A842D0" d="M405.564 823.63C416.519 831.428 435.18 854.701 443.839 865.22C452.155 875.197 460.572 885.089 469.09 894.894C467.896 898.462 465.132 903.238 463.219 906.582C452.456 894.994 441.735 881.999 431.65 869.784C426.999 864.151 420.031 856.642 415.886 850.954C415.93 850.949 415.974 850.933 416.018 850.941C418.676 851.442 428.846 864.803 431.264 867.646C434.867 861.324 433.672 860.101 432.785 853.263C429.409 849.861 423.576 842.654 420.1 838.823C417.016 835.425 407.034 826.184 405.564 823.63Z"/><path fill="#98437E" d="M121.938 393.327C123.101 395.062 126.592 401.705 127.234 403.573C127.352 404.754 127.483 405.933 127.624 407.11C121.25 412.131 114.231 416.494 107.936 421.645C106.058 423.181 104.177 424.708 102.08 425.929C103.004 423.98 103.277 423.876 104.998 422.475L108.777 419.374C107.201 416.309 106.375 414.162 105.149 410.927L104.381 410.605C101.981 410.827 99.8544 413.158 97.8029 414.754C96.7095 413.892 96.7746 413.671 96.191 412.357C96.8325 407.536 102.412 408.091 104.368 403.621C105.876 401.766 118.781 395.039 121.938 393.327Z"/><defs><linearGradient id="gradient_0" gradientUnits="userSpaceOnUse" x1="315.12152" y1="372.34442" x2="298.70517" y2="683.48737"><stop offset="0" stop-color="#C9215E"/><stop offset="1" stop-color="#5A1B65"/></linearGradient></defs><path fill="url(#gradient_0)" d="M121.938 393.327C116.97 384.911 111.557 364.494 110.115 354.664C97.4459 268.318 155.906 190.389 241.441 176.492C243.973 176.859 244.973 176.44 247.217 177.718L247.457 178.454C245.748 180.002 243.269 181.198 242.224 182.446C243.03 182.52 243.225 182.47 243.946 182.845C243.883 185.345 244.205 189.3 243.184 191.191C241.967 192.03 241.256 192.424 239.98 193.126C245.327 192.926 261.903 189.215 266.265 190.514C268.674 200.079 271.012 204.899 273.681 213.48L273.311 214.256C281.074 231.003 290.548 244.164 304.848 256.05C306.616 257.519 309.821 260.034 310.363 262.177C311.722 267.557 311.533 283.903 311.555 288.307C311.586 301.512 311.053 320.149 316.131 332.242C318.956 344.44 327.917 356.517 336.865 364.977C338.157 366.198 342.358 369.651 343.117 370.63C359.025 381.237 370.763 385.203 390.346 386.263C397.383 386.644 405.235 386.19 412.12 386.792C429.818 388.34 446.307 403.622 457.13 416.638C467.607 429.239 475.808 445.278 478.906 461.498C481.046 472.701 480.888 484.591 480.936 496.092L480.964 530.552L480.96 639.822C480.952 656.849 480.252 679.943 481.017 696.401C481.328 706.457 481.678 728.738 480.93 738.529C479.524 711 466.373 695.916 447.774 677.012C440.948 670.074 434.075 663.026 427.076 656.25C417.834 647.304 408.947 637.291 398.02 630.376C387.43 623.732 375.072 625.845 363.265 625.667C337.173 625.37 311.157 628.665 286.553 617.84C256.343 604.549 236.337 572.884 238.041 539.667C237.271 523.675 238.457 506.97 238.19 490.924C238.163 489.311 238.08 483.814 236.845 483.255C233.731 481.845 227.506 482.252 225.034 479.785C178.472 465.353 152.416 445.587 127.234 403.573C126.592 401.705 123.101 395.062 121.938 393.327Z"/><path fill="#D5265B" d="M239.98 193.126C245.327 192.926 261.903 189.215 266.265 190.514C268.674 200.079 271.012 204.899 273.681 213.48L273.311 214.256C281.074 231.003 290.548 244.164 304.848 256.05C306.616 257.519 309.821 260.034 310.363 262.177C311.722 267.557 311.533 283.903 311.555 288.307C311.586 301.512 311.053 320.149 316.131 332.242C318.956 344.44 327.917 356.517 336.865 364.977C338.157 366.198 342.358 369.651 343.117 370.63C343.894 372.425 344.287 372.695 345.789 373.967C346.591 376.688 344.353 381.533 342.73 383.739C340.318 383.593 337.944 385.01 336.473 384.26L335.726 384.646C334.943 384.316 325.457 383.638 324.18 383.716C313.88 384.341 304.023 382.107 293.801 382.18C290.081 382.269 286.418 383.518 281.992 383.663C265.769 384.196 249.273 381.667 233.273 381.35L161.609 380.33C159.496 380.292 154.471 380.251 152.464 380.645C144.748 382.16 141.029 379.848 133.77 378.144C133.095 377.031 133.02 376.853 132.564 375.629L131.85 375.629C130.161 372.142 128.22 364.33 127.419 360.541C119.69 324.347 126.687 286.565 146.864 255.538C168.96 221.479 200.666 201.548 239.98 193.126Z"/><path fill="#F39BC8" d="M121.938 393.327C116.97 384.911 111.557 364.494 110.115 354.664C97.4459 268.318 155.906 190.389 241.441 176.492C243.973 176.859 244.973 176.44 247.217 177.718L247.457 178.454C245.748 180.002 243.269 181.198 242.224 182.446C243.03 182.52 243.225 182.47 243.946 182.845C243.883 185.345 244.205 189.3 243.184 191.191C241.967 192.03 241.256 192.424 239.98 193.126C200.666 201.548 168.96 221.479 146.864 255.538C126.687 286.565 119.69 324.347 127.419 360.541C128.22 364.33 130.161 372.142 131.85 375.629C141.461 407.692 167.939 436.567 197.225 452.242C211.767 460.033 227.562 465.217 243.893 467.558C265.195 470.503 288.21 468.193 309.717 468.811C316.064 468.994 333.86 466.9 337.485 471.763C337.934 472.355 338.282 473.016 338.515 473.722C339.186 475.772 339.07 479.246 337.865 481.054C334.402 486.252 325.486 484.108 320.25 484.591C305.729 484.483 291.206 484.462 276.684 484.529C266.772 484.532 256.103 484.711 246.265 483.66C239.778 482.967 231.528 481.136 225.034 479.785C178.472 465.353 152.416 445.587 127.234 403.573C126.592 401.705 123.101 395.062 121.938 393.327Z"/><path fill="#D154B9" d="M238.041 539.667C239.256 533.785 238.611 516.21 238.78 509.177C241.751 509.211 247.112 509.417 249.77 510.673C251.033 515.819 249.935 547.017 250.759 547.714C250.839 546.384 250.895 544.695 251.036 543.402C251.563 548.463 251.868 553.543 252.949 558.483C258.078 581.913 276.399 601.951 299.418 608.848C313.267 612.997 326.179 612.898 340.376 612.857L367.304 612.741C379.695 612.661 390.819 612.151 402.171 618.19C414.172 624.575 424.77 636.454 434.533 645.952C451.221 662.187 466.563 678.142 481.017 696.401C481.328 706.457 481.678 728.738 480.93 738.529C479.524 711 466.373 695.916 447.774 677.012C440.948 670.074 434.075 663.026 427.076 656.25C417.834 647.304 408.947 637.291 398.02 630.376C387.43 623.732 375.072 625.845 363.265 625.667C337.173 625.37 311.157 628.665 286.553 617.84C256.343 604.549 236.337 572.884 238.041 539.667Z"/><defs><linearGradient id="gradient_1" gradientUnits="userSpaceOnUse" x1="245.35951" y1="483.80331" x2="243.56798" y2="509.55249"><stop offset="0" stop-color="#65235F"/><stop offset="1" stop-color="#A13C7F"/></linearGradient></defs><path fill="url(#gradient_1)" d="M225.034 479.785C231.528 481.136 239.778 482.967 246.265 483.66C256.103 484.711 266.772 484.532 276.684 484.529C291.206 484.462 305.729 484.483 320.25 484.591C311.643 486.257 299.909 484.613 291.059 485.108C277.765 485.853 264.755 485.195 251.531 485.181C251.549 488.341 251.665 491.868 251.481 494.998C250.533 511.112 250.989 527.25 251.036 543.402C250.895 544.695 250.839 546.384 250.759 547.714C249.935 547.017 251.033 515.819 249.77 510.673C247.112 509.417 241.751 509.211 238.78 509.177C238.611 516.21 239.256 533.785 238.041 539.667C237.271 523.675 238.457 506.97 238.19 490.924C238.163 489.311 238.08 483.814 236.845 483.255C233.731 481.845 227.506 482.252 225.034 479.785Z"/><path fill="#D5265B" d="M348.303 380.553L348.765 380.915L348.818 381.968C347.38 383.579 348.239 382.952 345.994 383.689C345.027 381.079 346.38 382.735 348.303 380.553Z"/><path fill="#5A1B62" d="M115.633 734.505C118.964 734.925 130.534 736.356 133.34 737.262C147.337 738.389 161.074 738.082 175.109 738.063L231.284 737.984C240.757 737.969 254.342 737.427 263.636 738.579C268.375 739.166 275.551 746.385 278.835 750.215C302.795 778.157 299.898 804.802 335.616 823.131C346.544 828.664 358.424 832.07 370.623 833.17C375.971 833.641 382.814 833.639 388.208 833.42C391.327 833.379 393.895 833.122 396.798 834.452C404.334 837.903 410.011 845.219 415.886 850.954C420.031 856.642 426.999 864.151 431.65 869.784C441.735 881.999 452.456 894.994 463.219 906.582C450.274 928.088 439.903 939.33 419.973 954.375C391.023 976.228 343.996 986.513 308.491 980.03C271.009 973.187 200.64 932.683 172.084 908.213C161.26 898.825 151.649 888.124 143.471 876.36C121.528 844.531 112.875 810.356 119.863 772.138C119.846 770.368 120.052 768.365 120.192 766.575C118.259 765.382 113.022 764.355 110.88 765.571C110.624 763.549 112.003 759.066 112.576 756.831C110.561 758.369 111.596 758.098 109.411 758.295C108.201 756.684 108.589 756.371 108.241 753.967C108.774 750.9 112.179 742.177 113.72 739.387C113.772 738.475 115.183 735.541 115.633 734.505Z"/><path fill="#8031A0" d="M115.633 734.505C118.964 734.925 130.534 736.356 133.34 737.262L131.833 737.747C128.21 745.304 125.231 753.153 122.927 761.21C122.091 764.059 120.777 769.74 119.863 772.138C119.846 770.368 120.052 768.365 120.192 766.575C118.259 765.382 113.022 764.355 110.88 765.571C110.624 763.549 112.003 759.066 112.576 756.831C110.561 758.369 111.596 758.098 109.411 758.295C108.201 756.684 108.589 756.371 108.241 753.967C108.774 750.9 112.179 742.177 113.72 739.387C113.772 738.475 115.183 735.541 115.633 734.505Z"/><path fill="#98437E" d="M113.72 739.387C116.808 738.168 114.064 735.566 118.633 735.626C119.818 737.577 115.485 747.483 114.979 750.241C114.678 751.879 113.532 755.397 112.576 756.831C110.561 758.369 111.596 758.098 109.411 758.295C108.201 756.684 108.589 756.371 108.241 753.967C108.774 750.9 112.179 742.177 113.72 739.387Z"/><path fill="#8031A0" d="M207.514 783.705C211.579 783.765 215.361 784.643 218.921 786.661C224.01 789.609 227.723 794.451 229.251 800.13C231.031 806.794 229.536 813.054 226.207 818.912C230.346 823.317 234.8 827.802 239.149 831.999C263.158 855.166 285.803 880.021 309.802 903.157C313.093 901.787 314.915 901.093 318.519 900.557C331.139 898.68 342.648 908.946 343.838 921.488C344.416 927.692 342.418 933.861 338.312 938.547C333.513 943.956 328.183 945.767 321.291 946.309C305.568 945.655 295.663 931.685 299.658 916.587C300.264 914.298 301.479 911.921 302.494 909.774C298.584 905.46 294.448 901.037 290.287 896.966C266.494 873.694 243.722 847.935 219.49 825.28C211.592 829.483 203.446 830.265 195.754 824.947C190.527 821.258 187.045 815.583 186.123 809.252C185.174 803.112 186.83 796.855 190.693 791.989C195.358 786.162 200.521 784.427 207.514 783.705Z"/><path fill="#5A1B62" d="M204.301 791.901C212.199 789.914 220.202 794.745 222.123 802.659C224.043 810.573 219.144 818.535 211.214 820.388C203.379 822.218 195.533 817.391 193.636 809.572C191.738 801.752 196.499 793.866 204.301 791.901Z"/><path fill="#5A1B62" d="M318.249 909.416C326.007 907.755 333.641 912.704 335.292 920.464C336.944 928.225 331.985 935.853 324.222 937.494C316.474 939.132 308.862 934.185 307.214 926.438C305.566 918.691 310.504 911.074 318.249 909.416Z"/><defs><linearGradient id="gradient_2" gradientUnits="userSpaceOnUse" x1="379.1347" y1="346.34924" x2="381.56668" y2="139.52379"><stop offset="0" stop-color="#DE1350"/><stop offset="1" stop-color="#F65E7A"/></linearGradient></defs><path fill="url(#gradient_2)" d="M282.72 142.728C283.115 143.583 283.2 144.132 283.319 145.065C286.527 145.584 292.692 137.975 294.445 138.888C301.417 142.521 309.383 140.18 316.977 141.378C337.325 144.37 357.952 145.189 378.475 144.744C384.819 145.486 389.525 146.489 396.067 146.184C407.261 145.662 415.424 143.834 427.016 143.41C438.164 143.003 453.981 144.61 465.221 141.524C466.613 141.142 470.872 145.497 476.613 145.456L477.184 146.975C477.886 144.886 476.743 144.517 477.231 142.426C481.904 157.117 480.876 177.751 480.908 193.377L480.982 246.084L481.001 292.419C481.001 299.127 481.348 309.07 480.928 315.368C480.329 321.248 480.096 327.11 479.858 333.004C479.746 335.806 480.643 345.864 479.213 347.416C477.679 347.577 468.236 344.939 466.009 344.811C466.239 344.824 458.951 341.591 458.093 341.277C447.244 337.395 436.104 334.377 424.778 332.252C406.801 328.931 374.974 329.186 367.572 308.478C364.047 298.618 365.841 292.587 369.662 283.149L371.5 282.977L371.982 282.349C376.22 280.351 379.81 275.503 377.301 270.598C374.759 266.792 368.231 266.676 364.089 265.973C305.758 256.085 268.933 199.637 282.72 142.728Z"/><path fill="#F6657E" d="M282.72 142.728C289.262 117.451 305.647 95.8434 328.22 82.7232C351.458 69.2221 379.077 65.4107 405.103 72.1131C431.146 78.6398 453.488 95.3278 467.137 118.448C471.115 125.272 475.327 134.736 477.231 142.426C476.743 144.517 477.886 144.886 477.184 146.975L476.613 145.456C470.872 145.497 466.613 141.142 465.221 141.524C453.981 144.61 438.164 143.003 427.016 143.41C415.424 143.834 407.261 145.662 396.067 146.184C389.525 146.489 384.819 145.486 378.475 144.744C357.952 145.189 337.325 144.37 316.977 141.378C309.383 140.18 301.417 142.521 294.445 138.888C292.692 137.975 286.527 145.584 283.319 145.065C283.2 144.132 283.115 143.583 282.72 142.728Z"/><defs><linearGradient id="gradient_3" gradientUnits="userSpaceOnUse" x1="388.46335" y1="378.07758" x2="422.09601" y2="309.1528"><stop offset="0" stop-color="#851644"/><stop offset="1" stop-color="#DA2156"/></linearGradient></defs><path fill="url(#gradient_3)" d="M326.632 297.25C326.598 291.662 326.121 276.684 327.886 272.039C330.915 272.042 333.809 275.492 338.164 275.216L338.972 275.399C343.725 276.499 349.451 278.87 354.355 280.099C360.325 281.594 365.907 281.9 371.982 282.349L371.5 282.977L369.662 283.149C365.841 292.587 364.047 298.618 367.572 308.478C374.974 329.186 406.801 328.931 424.778 332.252C436.104 334.377 447.244 337.395 458.093 341.277C458.951 341.591 466.239 344.824 466.009 344.811C468.236 344.939 477.679 347.577 479.213 347.416C480.643 345.864 479.746 335.806 479.858 333.004C480.096 327.11 480.329 321.248 480.928 315.368C481.558 351.608 480.126 389.073 480.924 425.028C466.659 403.266 444.622 377.941 418.13 372.808C408.548 370.951 399.942 371.569 390.083 371.131C367.951 370.147 350.096 361.443 337.252 343.161C333.721 338.135 332.666 333.54 330.279 329.144C326.877 316.313 326.727 310.375 326.632 297.25Z"/><defs><linearGradient id="gradient_4" gradientUnits="userSpaceOnUse" x1="308.20395" y1="658.02191" x2="289.09396" y2="990.49365"><stop offset="0" stop-color="#D557BD"/><stop offset="1" stop-color="#9B3BDB"/></linearGradient></defs><path fill="url(#gradient_4)" d="M480.524 855.865C483.152 861.809 472.48 891.982 468.247 899.046C466.89 901.562 465.783 905.525 463.712 907.498C462.124 909.012 462.085 911.302 463.692 912.738C466.918 907.197 470.326 902.218 472.784 896.147C476.879 886.036 480.507 876.461 482.775 865.712C483.849 860.623 484.882 852.047 485.073 846.767C485.588 832.56 485.354 818.092 485.361 803.831L485.331 721.168L485.548 561.989L485.691 503.305C485.711 493.071 485.454 482.636 485.796 472.432C486.755 490.397 485.998 515.387 485.995 533.812L486.215 645.667L486.225 684.199C486.221 686.294 485.965 697.613 486.102 698.623C486.571 698.576 486.93 698.288 487.405 698.027C491.301 691.565 486.836 680.29 488.087 676.93C492.014 666.383 491.018 662.752 491.009 651.514L490.979 621.214L490.991 527.472L490.973 488.963C490.972 485.884 490.759 474.067 491.225 471.523C491.274 473.061 491.314 474.599 491.346 476.137C491.979 506.84 491.475 539.234 491.514 570.073L491.786 739.268L492.089 813.293C492.134 831.165 493.091 852.685 489.555 869.942C484.163 896.252 469.237 923.96 450.617 943.32C420.885 974.656 379.858 992.801 336.672 993.715C325.535 993.928 309.014 993.206 298.341 989.927C252.028 975.7 192.049 941.798 156.819 909.206C128.394 882.909 107.006 839.513 106.295 801.217C106.274 791.681 106.716 783.553 108.463 774.13C109.141 770.474 110.746 768.616 110.88 765.571C113.022 764.355 118.259 765.382 120.192 766.575C120.052 768.365 119.846 770.368 119.863 772.138C112.875 810.356 121.528 844.531 143.471 876.36C151.649 888.124 161.26 898.825 172.084 908.213C200.64 932.683 271.009 973.187 308.491 980.03C343.996 986.513 391.023 976.228 419.973 954.375C439.903 939.33 450.274 928.088 463.219 906.582C465.132 903.238 467.896 898.462 469.09 894.894C475.802 881.403 477.921 870.293 480.524 855.865Z"/><defs><linearGradient id="gradient_5" gradientUnits="userSpaceOnUse" x1="323.89969" y1="267.42114" x2="313.27884" y2="289.75485"><stop offset="0" stop-color="#934F73"/><stop offset="1" stop-color="#CF6B8C"/></linearGradient></defs><path fill="url(#gradient_5)" d="M273.681 213.48C276.696 218.739 279.237 224.323 282.579 229.452C292.896 245.285 307.437 258.694 323.727 268.219C328.832 271.204 333.387 272.747 338.164 275.216C333.809 275.492 330.915 272.042 327.886 272.039C326.121 276.684 326.598 291.662 326.632 297.25C326.185 296.199 326.232 296.302 325.649 295.367C322.329 294.203 314.3 289.71 312.79 289.39L312.316 290.688L311.91 290.206C311.899 289.543 311.72 288.948 311.555 288.307C311.533 283.903 311.722 267.557 310.363 262.177C309.821 260.034 306.616 257.519 304.848 256.05C290.548 244.164 281.074 231.003 273.311 214.256L273.681 213.48Z"/><path fill="#C2498F" d="M263.486 174.366C263.402 169.228 263.183 162.336 263.998 157.34L264.024 157.876C264.222 162.571 263.761 166.98 264.012 171.921C264.358 178.732 265.296 183.896 266.265 190.514C261.903 189.215 245.327 192.926 239.98 193.126C241.256 192.424 241.967 192.03 243.184 191.191C244.205 189.3 243.883 185.345 243.946 182.845C243.225 182.47 243.03 182.52 242.224 182.446C243.269 181.198 245.748 180.002 247.457 178.454L247.217 177.718C244.973 176.44 243.973 176.859 241.441 176.492C247.87 174.864 256.797 174.476 263.486 174.366Z"/><defs><linearGradient id="gradient_6" gradientUnits="userSpaceOnUse" x1="320.42114" y1="290.76099" x2="316.2919" y2="308.16251"><stop offset="0" stop-color="#CB698B"/><stop offset="1" stop-color="#ED7E9E"/></linearGradient></defs><path fill="url(#gradient_6)" d="M311.555 288.307C311.72 288.948 311.899 289.543 311.91 290.206L312.316 290.688L312.79 289.39C314.3 289.71 322.329 294.203 325.649 295.367C326.232 296.302 326.185 296.199 326.632 297.25C326.727 310.375 326.877 316.313 330.279 329.144C326.818 326.418 325.933 309.636 325.718 305.273C322.937 307.653 314.813 307.157 313.087 308.022C310.701 309.219 316.397 329.649 316.131 332.242C311.053 320.149 311.586 301.512 311.555 288.307Z"/><path fill="#D154B9" d="M108.241 753.967C108.589 756.371 108.201 756.684 109.411 758.295C111.596 758.098 110.561 758.369 112.576 756.831C112.003 759.066 110.624 763.549 110.88 765.571C110.746 768.616 109.141 770.474 108.463 774.13C106.716 783.553 106.274 791.681 106.295 801.217C105.44 795.496 105.325 789.862 106.097 784.088C106.321 782.405 106.558 783.315 106.118 781.746C105.797 781.911 102.853 783.431 102.828 783.49C101.479 786.771 102.812 793.99 100.988 796.854C99.7279 787.495 105.121 763.726 108.241 753.967Z"/><path fill="#F39BC8" d="M938.674 790.059C940.092 798.763 938.768 812.916 937.151 821.462C924.341 889.139 874.076 930.522 816.5 961.5C771.963 985.461 734.059 1005.71 681.139 995.928C634.873 987.374 598.347 964.79 571.414 926.173C557.207 905.949 548.227 882.524 545.274 857.987C543.61 843.587 544.059 826.105 544.056 811.415L544.058 745.308L544.031 523.114L544.019 267.438L544.028 199.415C544.028 182.881 543.265 162.128 546.143 146.364C551.817 116.53 569.088 90.1631 594.17 73.0423C619.666 55.2933 651.254 48.6064 681.755 54.5017C734.859 64.3877 773.197 106.953 775.996 160.913C776.236 165.543 776.848 171.236 775.853 175.693C779.283 175.481 792.822 175.22 795.343 176.886C799.736 177.082 807.1 178.688 811.563 179.688C842.304 186.795 870.146 203.112 891.37 226.459C917.966 255.459 933.377 298.18 931.312 337.438C930.151 359.525 925.593 375.12 916.972 395.126C921.293 395.906 940.628 405.883 942.556 409.104C946.955 411.737 961.065 423.683 963.978 428.064C988.604 453.887 1008.25 490.647 1010.4 526.451C1012.26 557.312 1010.34 591.592 1010.96 622.673C1011.53 651.863 997.097 685.722 976.199 705.69C964.014 717.454 942.049 730.303 925.29 733.988C927.395 739.702 929.354 745.47 931.163 751.285C934.615 763.455 938.414 777.452 938.674 790.059Z"/><path fill="#5A1B62" d="M916.972 395.126C921.293 395.906 940.628 405.883 942.556 409.104C946.955 411.737 961.065 423.683 963.978 428.064C988.604 453.887 1008.25 490.647 1010.4 526.451C1012.26 557.312 1010.34 591.592 1010.96 622.673C1011.53 651.863 997.097 685.722 976.199 705.69C964.014 717.454 942.049 730.303 925.29 733.988C919.786 734.953 914.132 736.001 908.609 736.766C896.534 738.519 878.749 737.994 866.273 737.98L803.013 737.92C797.823 737.923 779.299 737.222 776.082 738.649C757.768 746.772 746.707 773.369 737.949 789.879C722.132 819.698 689.77 834.252 657.006 832.944C653.745 832.814 648.092 832.606 644.988 833.115C638.139 835.826 635.214 839.853 629.931 844.769C629.224 845.427 627.087 847.648 626.445 848.081C615.403 860.812 604.584 873.735 593.994 886.844C589.008 892.906 583.127 899.484 578.509 905.636C576.819 903.187 573.643 896.747 572.138 893.83C566.95 882.589 563.415 870.656 561.643 858.403C560.809 852.389 560.486 846.324 560.487 840.255C560.495 814.244 560.611 788.234 560.612 762.223C560.613 755.468 560.722 748.703 560.457 741.951L560.538 734.155C559.89 725.137 559.367 704.948 560.473 696.052C574.132 677.816 590.19 661.495 606.295 645.423C613.994 637.74 624.522 626.732 633.404 620.749C638.336 617.472 643.832 615.136 649.614 613.857C658.235 611.905 669.858 612.454 678.961 612.495L709.412 612.539C725.624 612.488 740.462 610.382 754.872 602.332C767.816 595.1 779.164 582.825 784.516 568.902C786.581 563.528 787.339 559.524 788.806 554.183L789.359 555.087C791.168 542.815 790.737 524.208 790.745 511.226C793.712 511.246 798.282 510.865 800.975 512.077C803.368 513.153 800.598 549.975 801.859 553.794C804.046 540.517 800.501 490.872 803.758 483.89C804.263 482.809 805.424 482.6 806.518 482.277C816.111 479.446 823.671 478.475 833.412 474.597C840.819 471.648 868.084 459.024 870.841 452.637C871.83 451.272 878.557 446.022 880.203 444.604C892.64 433.887 902.059 420.928 910.698 407.148C912.911 403.205 915.003 399.196 916.972 395.126Z"/><path fill="#D154B9" d="M936.11 424.577C936.053 424.191 935.995 423.805 935.938 423.42C934.353 421.965 933.835 421.618 932.008 420.444C931.812 418.768 937.512 411.603 937.911 407.514C939.741 406.437 939.679 409.096 942.556 409.104C946.955 411.737 961.065 423.683 963.978 428.064C988.604 453.887 1008.25 490.647 1010.4 526.451C1012.26 557.312 1010.34 591.592 1010.96 622.673C1011.53 651.863 997.097 685.722 976.199 705.69C964.014 717.454 942.049 730.303 925.29 733.988C919.786 734.953 914.132 736.001 908.609 736.766C896.534 738.519 878.749 737.994 866.273 737.98L803.013 737.92C797.823 737.923 779.299 737.222 776.082 738.649C757.768 746.772 746.707 773.369 737.949 789.879C722.132 819.698 689.77 834.252 657.006 832.944C653.745 832.814 648.092 832.606 644.988 833.115C638.139 835.826 635.214 839.853 629.931 844.769C629.224 845.427 627.087 847.648 626.445 848.081C620.817 850.27 613.45 863.562 610.009 865.153C607.794 860.972 609.961 858.638 609.564 852.854C609.13 846.526 630.128 829.818 632.898 824.62C643.914 814.531 655.698 818.544 669.26 817.081C683.442 815.55 696.799 810.968 708.374 802.504C721.52 793.136 726.266 778.096 733.732 764.563C741.614 750.275 751.956 734.082 766.568 725.863C773.69 721.856 782.579 722.152 790.502 722.208L810.691 722.375L864.222 722.433C903.602 722.448 935.692 723.475 966.52 692.728C973.077 686.082 978.609 678.497 982.934 670.223C996.955 643.581 994.72 620.142 994.633 591.195L994.457 534.429C994.441 531.311 994.06 524.764 993.56 521.885C986.723 480.292 968.029 451.174 936.11 424.577Z"/><path fill="#F39BC8" d="M947.18 418.305L949.794 415.91C953.374 418.695 961.133 427.4 963.978 428.064C988.604 453.887 1008.25 490.647 1010.4 526.451C1012.26 557.312 1010.34 591.592 1010.96 622.673C1011.53 651.863 997.097 685.722 976.199 705.69C964.014 717.454 942.049 730.303 925.29 733.988C919.786 734.953 914.132 736.001 908.609 736.766C896.534 738.519 878.749 737.994 866.273 737.98L803.013 737.92C797.823 737.923 779.299 737.222 776.082 738.649C757.768 746.772 746.707 773.369 737.949 789.879C722.132 819.698 689.77 834.252 657.006 832.944C653.745 832.814 648.092 832.606 644.988 833.115L643.639 830.877L643.049 830.95C643.365 832.112 643.35 831.687 643.259 832.868C638.494 835 635.774 838.104 631.581 840.87C630.392 841.655 626.571 843.599 624.961 844.522C632.544 836.722 636.002 833.909 645.02 828.291C670.542 826.795 677.315 830.458 702.292 818.276C736.71 801.489 736.172 770.338 759.9 744.332C770.18 733.066 779.094 732.291 793.618 732.912C799.098 733.059 805.532 732.936 811.119 732.952L864.685 733.047C908.869 733.087 944.096 733.099 977.238 696.981C1007.62 663.876 1006.1 627.216 1005.38 585.508C1005.1 568.96 1006.05 551.494 1005.14 534.841C1002.78 494.494 985.829 456.381 957.453 427.602C954.601 424.67 950.334 421.108 947.18 418.305Z"/><path fill="#D154B9" d="M788.806 554.183L789.359 555.087C791.168 542.815 790.737 524.208 790.745 511.226C793.712 511.246 798.282 510.865 800.975 512.077C803.368 513.153 800.598 549.975 801.859 553.794C802.585 566.406 790.329 587.511 782.208 596.863C749.712 634.396 700.796 623.821 657.121 625.66C652.577 625.852 645.004 628.219 641.282 631.005C621.413 645.885 603.403 666.516 586.123 684.165C570.045 700.586 564.457 712.074 560.538 734.155C559.89 725.137 559.367 704.948 560.473 696.052C574.132 677.816 590.19 661.495 606.295 645.423C613.994 637.74 624.522 626.732 633.404 620.749C638.336 617.472 643.832 615.136 649.614 613.857C658.235 611.905 669.858 612.454 678.961 612.495L709.412 612.539C725.624 612.488 740.462 610.382 754.872 602.332C767.816 595.1 779.164 582.825 784.516 568.902C786.581 563.528 787.339 559.524 788.806 554.183Z"/><path fill="#C2498F" d="M886.518 630.235C891.326 626.35 904.857 611.96 909.787 606.996C926.502 590.316 943.116 573.537 959.63 556.658L981.567 534.552C984.804 531.29 991.049 525.344 993.56 521.885C994.06 524.764 994.441 531.311 994.457 534.429C962.109 568.434 927.22 602.519 894.003 635.82C895.139 637.203 896.15 638.683 897.024 640.244C902.818 650.742 898.306 665.06 887.789 670.655C882.488 673.421 876.315 674.002 870.591 672.274C864.624 670.384 859.698 666.12 856.974 660.484C847.979 641.995 866.277 622.035 886.518 630.235Z"/><path fill="#5A1B62" d="M873.612 636.361C881.525 634.399 889.532 639.221 891.499 647.132C893.466 655.044 888.651 663.054 880.74 665.027C872.822 667.001 864.803 662.18 862.833 654.26C860.864 646.341 865.691 638.325 873.612 636.361Z"/><path fill="#A842D0" d="M572.138 893.83C585.109 879.119 597.243 862.701 610.205 847.907C616.863 840.31 624.994 830.899 632.898 824.62C630.128 829.818 609.13 846.526 609.564 852.854C609.961 858.638 607.794 860.972 610.009 865.153C613.45 863.562 620.817 850.27 626.445 848.081C615.403 860.812 604.584 873.735 593.994 886.844C589.008 892.906 583.127 899.484 578.509 905.636C576.819 903.187 573.643 896.747 572.138 893.83Z"/><path fill="#98437E" d="M916.972 395.126C921.293 395.906 940.628 405.883 942.556 409.104C939.679 409.096 939.741 406.437 937.911 407.514C937.512 411.603 931.812 418.768 932.008 420.444C933.835 421.618 934.353 421.965 935.938 423.42C935.995 423.805 936.053 424.191 936.11 424.577C935.055 424.141 929.196 419.655 927.955 418.742C922.161 414.482 917.044 410.623 910.698 407.148C912.911 403.205 915.003 399.196 916.972 395.126Z"/><defs><linearGradient id="gradient_7" gradientUnits="userSpaceOnUse" x1="744.80798" y1="678.72778" x2="719.20312" y2="371.40021"><stop offset="0" stop-color="#5B1C65"/><stop offset="1" stop-color="#C8215E"/></linearGradient></defs><path fill="url(#gradient_7)" d="M775.853 175.693C779.283 175.481 792.822 175.22 795.343 176.886C799.736 177.082 807.1 178.688 811.563 179.688C842.304 186.795 870.146 203.112 891.37 226.459C917.966 255.459 933.377 298.18 931.312 337.438C930.151 359.525 925.593 375.12 916.972 395.126C915.003 399.196 912.911 403.205 910.698 407.148C902.059 420.928 892.64 433.887 880.203 444.604C878.557 446.022 871.83 451.272 870.841 452.637C868.084 459.024 840.819 471.648 833.412 474.597C823.671 478.475 816.111 479.446 806.518 482.277C805.424 482.6 804.263 482.809 803.758 483.89C800.501 490.872 804.046 540.517 801.859 553.794C800.598 549.975 803.368 513.153 800.975 512.077C798.282 510.865 793.712 511.246 790.745 511.226C790.737 524.208 791.168 542.815 789.359 555.087L788.806 554.183C787.339 559.524 786.581 563.528 784.516 568.902C779.164 582.825 767.816 595.1 754.872 602.332C740.462 610.382 725.624 612.488 709.412 612.539L678.961 612.495C669.858 612.454 658.235 611.905 649.614 613.857C643.832 615.136 638.336 617.472 633.404 620.749C624.522 626.732 613.994 637.74 606.295 645.423C590.19 661.495 574.132 677.816 560.473 696.052L560.497 543.682L560.477 498.889C560.473 488.835 560.184 478.199 561.328 467.819C564.982 434.634 593.792 393.002 628.308 386.911C633.388 386.015 643.4 386.484 649.026 386.265C670.29 385.436 684.728 380.088 701.423 367.166C711.637 357.668 722.068 344.191 724.94 330.227C728.994 319.309 728.698 303.493 728.459 291.832L728.794 277.484C728.602 271.683 728.544 265.878 728.622 260.074C751.548 242.21 767.79 219.39 773.5 190.541C774.444 186.059 775.15 180.298 775.853 175.693Z"/><path fill="#D5265B" d="M773.5 190.541C777.102 190.602 779.605 190.983 783.169 191.484C786.035 191.864 795.414 193.259 797.726 193.118C802.84 193.636 810.404 195.841 815.437 197.338C842.391 205.355 866.241 220.981 884.145 242.788C907.478 271.708 918.545 308.623 914.97 345.61C914.16 353.38 911.099 369.46 907.661 376.557C906.125 377.547 906.48 377.761 905.674 379.937C904.162 380.727 902.65 380.15 902.132 380.387C895.997 383.202 892.569 389.729 885.087 387.195C881.043 385.825 877.827 387.472 874.06 387.785C867.074 388.365 860.332 389.44 853.377 390.086C850.492 390.361 850.611 388.508 848.446 387.465C833.848 387.764 805.389 386.423 793.097 391.188L791.771 389.761C788.294 390.815 791.754 391.476 789.134 391.933C786.497 392.393 781.439 391.706 778.6 391.47C778.133 390.792 777.665 390.114 777.198 389.436C769.729 388.695 761.365 386.118 754.033 385.395C748.154 384.814 745.29 384.473 739.726 384.855C736.049 385.108 731.563 386.719 728.367 386.975C718.879 387.736 707.428 389.427 698.102 388.16C695.516 387.808 693.025 386.494 690.959 385.24C686.871 377.516 700.397 371.29 701.423 367.166C711.637 357.668 722.068 344.191 724.94 330.227C728.994 319.309 728.698 303.493 728.459 291.832L728.794 277.484C728.602 271.683 728.544 265.878 728.622 260.074C751.548 242.21 767.79 219.39 773.5 190.541Z"/><path fill="#7D2046" d="M773.5 190.541C777.102 190.602 779.605 190.983 783.169 191.484C779.834 191.855 777.895 191.693 774.654 190.7C769.291 211.202 761.996 228.597 747.191 244.137C741.26 250.363 735.353 256.086 729.535 262.437C729.559 265.289 729.952 277.909 729.25 279.821C729.022 278.861 728.944 278.485 728.794 277.484C728.602 271.683 728.544 265.878 728.622 260.074C751.548 242.21 767.79 219.39 773.5 190.541Z"/><path fill="#F39BC8" d="M775.853 175.693C779.283 175.481 792.822 175.22 795.343 176.886C799.736 177.082 807.1 178.688 811.563 179.688C842.304 186.795 870.146 203.112 891.37 226.459C917.966 255.459 933.377 298.18 931.312 337.438C930.151 359.525 925.593 375.12 916.972 395.126C915.003 399.196 912.911 403.205 910.698 407.148C902.059 420.928 892.64 433.887 880.203 444.604C878.557 446.022 871.83 451.272 870.841 452.637C868.084 459.024 840.819 471.648 833.412 474.597C823.671 478.475 816.111 479.446 806.518 482.277C805.424 482.6 804.263 482.809 803.758 483.89C800.501 490.872 804.046 540.517 801.859 553.794C800.598 549.975 803.368 513.153 800.975 512.077C798.282 510.865 793.712 511.246 790.745 511.226C790.737 524.208 791.168 542.815 789.359 555.087L788.806 554.183C790.771 539.52 789.402 522.392 789.915 507.51C790.04 503.905 788.951 499.55 789.12 495.775C789.29 491.97 789.475 488.232 789.5 484.419C781.783 484.988 729.587 486.324 724.657 484.498C717.029 483.653 702.372 487.768 701.905 476.42C701.735 472.307 704.692 468.863 708.862 468.669C715.469 468.362 722.219 468.599 728.86 468.605L764.089 468.614C770.324 468.614 776.754 468.723 782.964 468.484C818.406 467.117 852.837 451.646 877.299 425.987C889.964 412.703 902.323 394.289 907.661 376.557C911.099 369.46 914.16 353.38 914.97 345.61C918.545 308.623 907.478 271.708 884.145 242.788C866.241 220.981 842.391 205.355 815.437 197.338C810.404 195.841 802.84 193.636 797.726 193.118C795.414 193.259 786.035 191.864 783.169 191.484C779.605 190.983 777.102 190.602 773.5 190.541C774.444 186.059 775.15 180.298 775.853 175.693Z"/><defs><linearGradient id="gradient_8" gradientUnits="userSpaceOnUse" x1="794.9776" y1="483.43204" x2="797.19983" y2="511.83643"><stop offset="0" stop-color="#64235D"/><stop offset="1" stop-color="#A33A7E"/></linearGradient></defs><path fill="url(#gradient_8)" d="M870.841 452.637C868.084 459.024 840.819 471.648 833.412 474.597C823.671 478.475 816.111 479.446 806.518 482.277C805.424 482.6 804.263 482.809 803.758 483.89C800.501 490.872 804.046 540.517 801.859 553.794C800.598 549.975 803.368 513.153 800.975 512.077C798.282 510.865 793.712 511.246 790.745 511.226C790.737 524.208 791.168 542.815 789.359 555.087L788.806 554.183C790.771 539.52 789.402 522.392 789.915 507.51C790.04 503.905 788.951 499.55 789.12 495.775C789.29 491.97 789.475 488.232 789.5 484.419C781.783 484.988 729.587 486.324 724.657 484.498C787.225 481.791 814.507 492.296 870.841 452.637Z"/><path fill="#C2498F" d="M775.853 175.693C779.283 175.481 792.822 175.22 795.343 176.886L794.708 177.534C793.104 177.295 791.791 177.089 790.21 176.74L789.184 177.251C788.645 178.871 788.59 178.275 788.861 179.773C790.459 180.459 792.075 181.102 793.706 181.702L790.571 181.352C789.356 182.532 788.946 188.699 788.881 190.624C792.321 192.383 795.139 190.585 797.726 193.118C795.414 193.259 786.035 191.864 783.169 191.484C779.605 190.983 777.102 190.602 773.5 190.541C774.444 186.059 775.15 180.298 775.853 175.693Z"/><path fill="#5A1B62" d="M908.609 736.766C914.132 736.001 919.786 734.953 925.29 733.988C927.395 739.702 929.354 745.47 931.163 751.285C929.929 752.058 928.907 752.924 927.576 753.15L927.3 752.065C926.456 753.644 930.367 762.689 929.608 765.771C919.356 766.712 921.296 766.217 921.094 774.733C927.034 813.3 917.709 847.63 894.786 878.895C885.367 891.485 874.44 902.873 862.25 912.804C833.755 935.893 765.43 974.544 729.506 980.022C690.903 985.58 651.656 975.841 620.131 952.88C611.604 946.54 603.771 939.314 596.765 931.325C594.385 928.644 591.643 924.981 589.4 922.571C585.734 917.096 581.705 911.356 578.509 905.636C583.127 899.484 589.008 892.906 593.994 886.844C604.584 873.735 615.403 860.812 626.445 848.081C627.087 847.648 629.224 845.427 629.931 844.769C635.214 839.853 638.139 835.826 644.988 833.115C648.092 832.606 653.745 832.814 657.006 832.944C689.77 834.252 722.132 819.698 737.949 789.879C746.707 773.369 757.768 746.772 776.082 738.649C779.299 737.222 797.823 737.923 803.013 737.92L866.273 737.98C878.749 737.994 896.534 738.519 908.609 736.766Z"/><path fill="#8031A0" d="M908.609 736.766C914.132 736.001 919.786 734.953 925.29 733.988C927.395 739.702 929.354 745.47 931.163 751.285C929.929 752.058 928.907 752.924 927.576 753.15L927.3 752.065C926.456 753.644 930.367 762.689 929.608 765.771C919.356 766.712 921.296 766.217 921.094 774.733C918.901 768.375 917.981 760.432 915.089 753.608C914.034 751.117 909.935 739.894 909.884 738.024L910.873 737.334L908.609 736.766Z"/><path fill="#8031A0" d="M832.476 783.686C835.979 783.774 839.188 784.282 842.398 785.761C847.741 788.271 851.841 792.835 853.767 798.415C855.849 804.381 855.39 810.94 852.495 816.557C849.809 821.91 845.051 825.931 839.325 827.687C832.608 829.705 827.008 828.311 821.046 825.233L767.96 878.655C758.218 888.522 747.723 899.674 737.809 909.221C739.496 912.75 740.945 915.651 741.581 919.549C742.647 925.774 741.078 932.161 737.249 937.183C732.829 942.951 727.509 945.068 720.654 946.091C717.416 946.105 715.313 945.873 712.192 944.805C706.223 942.773 701.376 938.338 698.821 932.573C696.186 926.801 696.074 920.193 698.511 914.335C704.23 900.42 717.635 896.853 730.71 902.888L786.733 846.558C795.691 837.592 805.648 828.009 814.249 818.811C812.923 815.806 811.345 812.426 810.981 809.193C809.316 794.375 818.645 785.121 832.476 783.686Z"/><path fill="#5A1B62" d="M831.182 791.295C839.259 790.332 846.592 796.089 847.574 804.165C848.555 812.24 842.815 819.586 834.742 820.587C826.642 821.591 819.267 815.828 818.282 807.725C817.297 799.623 823.077 792.261 831.182 791.295Z"/><path fill="#5A1B62" d="M717.064 908.802C724.922 907.513 732.335 912.84 733.62 920.698C734.904 928.555 729.573 935.966 721.714 937.246C713.862 938.524 706.459 933.198 705.176 925.347C703.892 917.496 709.214 910.09 717.064 908.802Z"/><defs><linearGradient id="gradient_9" gradientUnits="userSpaceOnUse" x1="668.1944" y1="355.40915" x2="650.62384" y2="159.94363"><stop offset="0" stop-color="#D7114E"/><stop offset="1" stop-color="#F65575"/></linearGradient></defs><path fill="url(#gradient_9)" d="M561.17 155.929C561.988 160.887 560.645 163.945 561.663 170.342C561.829 169.197 561.748 169.493 562.132 168.472C563.561 168.276 569.204 168.217 570.804 168.435C582.009 170.14 593.486 165.744 604.682 165.923C616.372 166.111 628.004 165.509 639.674 165.697C647.285 165.82 655.573 167.264 663.166 167.019C673.919 166.671 684.736 163.526 695.483 162.663C702.188 162.167 709.24 163.092 715.953 162.976C726.651 162.434 737.54 161.553 748.249 161.093C750.45 160.999 754.534 163.386 757.586 163.558C758.229 162.558 757.899 162.828 758.833 162.209L759.244 163.871C759.74 160.021 758.591 157.477 759.331 153.726C762.92 179.486 756.208 205.622 740.651 226.464C723.819 248.94 697.641 263.681 669.83 266.883C660.457 267.962 660.414 276.459 666.941 282.155C669.199 283.897 673.696 282.903 676.744 282.564C688.098 300.763 682.301 317.115 664.46 327.936C648.413 337.669 624.177 336.275 606.716 342.86C598.23 345.852 586.781 349.867 579.167 354.339C572.792 358.084 568.271 361.905 561.261 365.364C561.274 362.207 561.579 356.41 560.525 353.709C559.948 347.904 560.388 329.741 560.378 322.886L560.352 257.2L560.273 195.186C560.241 184.768 559.791 165.669 561.17 155.929Z"/><path fill="#F6657E" d="M561.17 155.929C561.166 140.101 574.492 114.073 585.012 102.41C603.124 82.3727 628.439 70.3302 655.412 68.9202C691.958 67.1509 727.849 84.4053 746.35 116.555C752.108 126.561 758.827 142.032 759.331 153.726C758.591 157.477 759.74 160.021 759.244 163.871L758.833 162.209C757.899 162.828 758.229 162.558 757.586 163.558C754.534 163.386 750.45 160.999 748.249 161.093C737.54 161.553 726.651 162.434 715.953 162.976C709.24 163.092 702.188 162.167 695.483 162.663C684.736 163.526 673.919 166.671 663.166 167.019C655.573 167.264 647.285 165.82 639.674 165.697C628.004 165.509 616.372 166.111 604.682 165.923C593.486 165.744 582.009 170.14 570.804 168.435C569.204 168.217 563.561 168.276 562.132 168.472C561.748 169.493 561.829 169.197 561.663 170.342C560.645 163.945 561.988 160.887 561.17 155.929Z"/><path fill="#A842D0" d="M550.077 696.065L553.214 692.464L554.368 692.76C555.652 690.594 554.898 656.52 555.153 650.1C555.692 670.55 555.403 692.136 555.451 712.669L556.008 794.743L556.124 829.576C556.124 836.894 555.648 847.489 556.784 854.601C559.663 872.619 565.067 891.83 575.086 907.197C576.05 908.676 576.811 911.596 578.116 912.391C578.892 911.096 578.853 910.397 579.029 908.91C582.089 913.274 585.45 918.748 588.561 922.781L589.4 922.571C591.643 924.981 594.385 928.644 596.765 931.325C603.771 939.314 611.604 946.54 620.131 952.88C651.656 975.841 690.903 985.58 729.506 980.022C765.43 974.544 833.755 935.893 862.25 912.804C874.44 902.873 885.367 891.485 894.786 878.895C917.709 847.63 927.034 813.3 921.094 774.733C921.296 766.217 919.356 766.712 929.608 765.771C931.119 773.023 932.586 783.523 934.193 790.108C933.533 865.622 891.761 913.1 828.766 948.796C789.917 970.811 753.957 993.703 707.508 993.201C664.052 992.974 622.509 975.301 592.208 944.151C574.341 925.788 560.028 900.158 553.494 875.315C548.176 855.094 549.352 835.717 549.406 815.011L549.521 765.099L549.658 693.797C549.681 682.051 548.945 667.096 549.902 655.62C550.118 668.96 549.677 682.915 550.077 696.065Z"/><defs><linearGradient id="gradient_10" gradientUnits="userSpaceOnUse" x1="651.9729" y1="376.31876" x2="619.25671" y2="312.23404"><stop offset="0" stop-color="#871645"/><stop offset="1" stop-color="#CD2053"/></linearGradient></defs><path fill="url(#gradient_10)" d="M703.828 274.254C705.927 275.081 710.84 272.18 713.001 271.125C713.941 279.277 713.914 285.904 713.84 294.043C713.736 308.102 714.008 313.283 710.811 326.978C697.04 364.266 669.247 371.988 632.942 371.448C601.817 370.985 575.994 400.975 560.427 425.453L560.455 378.112C560.456 370.613 560.19 361.071 560.525 353.709C561.579 356.41 561.274 362.207 561.261 365.364C568.271 361.905 572.792 358.084 579.167 354.339C586.781 349.867 598.23 345.852 606.716 342.86C624.177 336.275 648.413 337.669 664.46 327.936C682.301 317.115 688.098 300.763 676.744 282.564C673.696 282.903 669.199 283.897 666.941 282.155C678.612 283.062 692.999 278.201 703.828 274.254Z"/><defs><linearGradient id="gradient_11" gradientUnits="userSpaceOnUse" x1="715.73199" y1="268.9115" x2="726.8089" y2="286.9704"><stop offset="0" stop-color="#924E6E"/><stop offset="1" stop-color="#CA6A89"/></linearGradient></defs><path fill="url(#gradient_11)" d="M703.828 274.254C705.359 273.33 710.686 271.026 712.702 270.018C718.967 266.885 723.045 264.144 728.622 260.074C728.544 265.878 728.602 271.683 728.794 277.484L728.459 291.832L728.205 290.955C727.822 289.588 727.773 288.666 727.666 287.265C725.212 287.962 724.226 289.27 721.947 290.382C719.271 291.686 716.581 292.885 713.84 294.043C713.914 285.904 713.941 279.277 713.001 271.125C710.84 272.18 705.927 275.081 703.828 274.254Z"/><defs><linearGradient id="gradient_12" gradientUnits="userSpaceOnUse" x1="719.2597" y1="288.99374" x2="724.0011" y2="307.40125"><stop offset="0" stop-color="#C96888"/><stop offset="1" stop-color="#EF809D"/></linearGradient></defs><path fill="url(#gradient_12)" d="M713.84 294.043C716.581 292.885 719.271 291.686 721.947 290.382C724.226 289.27 725.212 287.962 727.666 287.265C727.773 288.666 727.822 289.588 728.205 290.955L728.459 291.832C728.698 303.493 728.994 319.309 724.94 330.227C724.768 324.975 728.468 314.551 727.604 307.787C726.49 306.251 727.194 306.768 725.447 306.137C722.725 307.09 718.737 304.687 715.104 305.377C713.795 307.98 714.571 318.986 711.622 326.605L710.811 326.978C714.008 313.283 713.736 308.102 713.84 294.043Z"/><path fill="#D154B9" d="M579.029 908.91C576.165 901.994 570.318 894.361 568.186 886.943C566.95 882.643 566.253 884.433 563.882 881.271C564.166 879.969 564.63 878.437 564.634 877.107C564.641 874.262 563.033 870.342 562.373 867.484C561.314 862.897 560.333 857.99 559.994 853.295C559.274 843.324 559.186 746.04 560.457 741.951C560.722 748.703 560.613 755.468 560.612 762.223C560.611 788.234 560.495 814.244 560.487 840.255C560.486 846.324 560.809 852.389 561.643 858.403C563.415 870.656 566.95 882.589 572.138 893.83C573.643 896.747 576.819 903.187 578.509 905.636C581.705 911.356 585.734 917.096 589.4 922.571L588.561 922.781C585.45 918.748 582.089 913.274 579.029 908.91Z"/><path fill="#D154B9" d="M929.608 765.771C930.367 762.689 926.456 753.644 927.3 752.065L927.576 753.15C928.907 752.924 929.929 752.058 931.163 751.285C934.615 763.455 938.414 777.452 938.674 790.059C936.648 784.693 938.103 781.826 936.015 776.443L934.046 776.82C933.658 780.843 935.333 786.812 934.193 790.108C932.586 783.523 931.119 773.023 929.608 765.771Z"/></svg>