<svg xmlns="http://www.w3.org/2000/svg" width="45.03" height="78" viewBox="0 0 45.03 78"><path d="M-22.52 -65.00 L 0.00 -52.00 L 0.00 -26.00 L -22.52 -13.00 L -45.03 -26.00 L -45.03 -52.00 Z M22.52 -65.00 L 45.03 -52.00 L 45.03 -26.00 L 22.52 -13.00 L 0.00 -26.00 L 0.00 -52.00 Z M67.55 -65.00 L 90.07 -52.00 L 90.07 -26.00 L 67.55 -13.00 L 45.03 -26.00 L 45.03 -52.00 Z M112.58 -65.00 L 135.10 -52.00 L 135.10 -26.00 L 112.58 -13.00 L 90.07 -26.00 L 90.07 -52.00 Z M-45.03 -26.00 L -22.52 -13.00 L -22.52 13.00 L -45.03 26.00 L -67.55 13.00 L -67.55 -13.00 Z M0.00 -26.00 L 22.52 -13.00 L 22.52 13.00 L 0.00 26.00 L -22.52 13.00 L -22.52 -13.00 Z M45.03 -26.00 L 67.55 -13.00 L 67.55 13.00 L 45.03 26.00 L 22.52 13.00 L 22.52 -13.00 Z M90.07 -26.00 L 112.58 -13.00 L 112.58 13.00 L 90.07 26.00 L 67.55 13.00 L 67.55 -13.00 Z M-22.52 13.00 L 0.00 26.00 L 0.00 52.00 L -22.52 65.00 L -45.03 52.00 L -45.03 26.00 Z M22.52 13.00 L 45.03 26.00 L 45.03 52.00 L 22.52 65.00 L 0.00 52.00 L 0.00 26.00 Z M67.55 13.00 L 90.07 26.00 L 90.07 52.00 L 67.55 65.00 L 45.03 52.00 L 45.03 26.00 Z M112.58 13.00 L 135.10 26.00 L 135.10 52.00 L 112.58 65.00 L 90.07 52.00 L 90.07 26.00 Z M-45.03 52.00 L -22.52 65.00 L -22.52 91.00 L -45.03 104.00 L -67.55 91.00 L -67.55 65.00 Z M0.00 52.00 L 22.52 65.00 L 22.52 91.00 L 0.00 104.00 L -22.52 91.00 L -22.52 65.00 Z M45.03 52.00 L 67.55 65.00 L 67.55 91.00 L 45.03 104.00 L 22.52 91.00 L 22.52 65.00 Z M90.07 52.00 L 112.58 65.00 L 112.58 91.00 L 90.07 104.00 L 67.55 91.00 L 67.55 65.00 Z M-22.52 91.00 L 0.00 104.00 L 0.00 130.00 L -22.52 143.00 L -45.03 130.00 L -45.03 104.00 Z M22.52 91.00 L 45.03 104.00 L 45.03 130.00 L 22.52 143.00 L 0.00 130.00 L 0.00 104.00 Z M67.55 91.00 L 90.07 104.00 L 90.07 130.00 L 67.55 143.00 L 45.03 130.00 L 45.03 104.00 Z M112.58 91.00 L 135.10 104.00 L 135.10 130.00 L 112.58 143.00 L 90.07 130.00 L 90.07 104.00 Z" fill="none" stroke="#fff" stroke-width="1" stroke-linejoin="round"/></svg>