<svg xmlns="http://www.w3.org/2000/svg" viewBox="152 128 950 950" width="256" height="256" role="img" aria-label="Hivekeep">
  <defs>
    <linearGradient id="hivekeep-aurora" gradientUnits="userSpaceOnUse" x1="201" y1="226" x2="1052" y2="980">
      <stop stop-color="#AE5AF9"/>
      <stop offset="0.52" stop-color="#FB5FCA"/>
      <stop offset="1" stop-color="#FFB470"/>
    </linearGradient>
  </defs>
  <g fill="url(#hivekeep-aurora)">
    <path d="M 606.32 388.13 Q 567.85 411.20 540.64 427.76 Q 533.41 432.16 530.28 432.60 Q 524.42 433.44 518.32 432.24 Q 514.85 431.55 507.63 426.98 Q 492.04 417.10 455.74 395.26 Q 446.33 389.60 442.87 385.78 Q 434.12 376.11 434.16 362.01 C 434.20 345.11 433.97 328.87 434.52 312.38 Q 434.69 307.48 434.58 301.86 C 434.36 291.42 436.84 282.71 443.65 275.08 Q 446.77 271.58 454.97 266.76 Q 489.64 246.36 505.86 236.52 Q 518.64 228.76 524.64 227.20 Q 535.62 224.33 546.71 227.53 Q 552.38 229.16 560.26 234.52 Q 564.08 237.11 600.04 259.35 Q 609.12 264.97 612.12 268.84 Q 617.95 276.36 617.96 285.95 Q 618.00 354.40 617.92 366.16 C 617.85 375.38 613.73 381.32 607.40 387.31 A 6.06 5.79 6.5 0 1 606.32 388.13 Z"/>
    <path d="M 819.08 362.24 C 819.06 372.42 815.75 380.78 808.52 387.70 Q 806.08 390.03 800.32 393.52 Q 748.94 424.67 746.72 426.17 Q 738.82 431.52 733.71 432.47 C 721.88 434.64 715.81 429.51 705.96 423.75 Q 697.40 418.75 654.06 392.47 Q 644.83 386.88 642.18 383.58 Q 637.96 378.32 636.16 371.98 Q 635.27 368.85 635.38 358.96 Q 635.78 319.90 635.88 293.21 Q 635.93 280.77 637.47 277.01 C 640.84 268.75 644.74 265.15 653.32 259.85 Q 681.43 242.45 690.93 236.38 Q 703.16 228.57 707.82 227.35 Q 718.97 224.42 729.73 227.28 Q 735.20 228.73 748.78 236.99 Q 792.40 263.50 795.88 265.47 Q 807.06 271.83 809.87 275.50 Q 814.76 281.91 817.08 288.19 Q 818.44 291.89 818.57 302.57 Q 819.12 347.58 819.08 362.24 Z"/>
    <path d="M 459.87 583.15 C 449.54 589.88 438.65 590.28 427.89 583.38 Q 427.08 582.85 370.31 545.71 Q 334.80 522.47 307.74 505.28 Q 294.88 497.12 292.30 493.85 C 284.81 484.39 283.51 476.35 283.66 463.12 Q 283.83 447.71 283.65 412.08 Q 283.57 396.49 285.28 391.12 Q 289.57 377.68 301.46 370.65 Q 316.30 361.87 367.49 332.18 Q 376.77 326.79 381.72 325.72 Q 390.83 323.73 399.25 326.25 C 408.78 329.11 414.62 339.37 414.49 349.00 Q 414.34 360.25 414.51 369.99 Q 414.93 393.75 434.53 405.74 Q 476.72 431.53 497.78 444.48 C 504.66 448.71 510.60 456.41 512.44 464.59 Q 513.22 468.02 513.25 475.46 Q 513.30 485.76 513.28 522.26 C 513.28 529.10 513.30 535.74 511.32 541.09 Q 508.93 547.54 504.61 552.82 Q 502.01 556.01 494.03 561.14 Q 467.81 577.98 459.87 583.15 Z"/>
    <path d="M 825.12 583.31 C 814.36 590.21 803.48 589.81 793.15 583.08 Q 785.21 577.91 758.99 561.07 Q 751.01 555.94 748.41 552.75 Q 744.10 547.47 741.71 541.02 C 739.73 535.67 739.75 529.03 739.75 522.19 Q 739.73 485.69 739.78 475.39 Q 739.81 467.95 740.59 464.52 C 742.43 456.35 748.38 448.65 755.25 444.42 Q 776.31 431.47 818.50 405.69 Q 838.10 393.70 838.52 369.94 Q 838.69 360.20 838.55 348.96 C 838.42 339.33 844.26 329.07 853.79 326.21 Q 862.21 323.69 871.32 325.68 Q 876.26 326.75 885.54 332.14 Q 936.72 361.83 951.56 370.62 Q 963.45 377.65 967.74 391.08 Q 969.45 396.45 969.37 412.04 Q 969.18 447.67 969.35 463.08 C 969.50 476.31 968.20 484.35 960.71 493.80 Q 958.13 497.07 945.27 505.23 Q 918.21 522.42 882.70 545.65 Q 825.93 582.78 825.12 583.31 Z"/>
    <path d="M 663.60 641.02 Q 663.76 640.73 689.44 601.19 Q 691.18 598.51 689.82 594.15 C 687.53 586.78 677.57 585.63 673.47 591.74 Q 660.15 611.56 647.76 630.37 C 645.88 633.22 643.49 634.85 640.30 633.96 C 633.46 632.04 628.01 629.62 621.29 631.59 Q 619.07 632.24 614.28 633.72 Q 609.88 635.09 607.37 631.42 Q 593.30 610.82 581.37 591.96 Q 579.08 588.34 573.70 587.87 Q 568.45 587.41 565.25 592.13 C 562.44 596.26 563.73 599.82 566.60 604.18 Q 572.43 613.01 588.53 637.97 Q 591.10 641.96 591.11 643.51 C 591.12 646.63 590.60 648.56 587.60 650.47 C 574.23 659.01 561.85 664.74 557.49 680.98 Q 556.22 685.71 556.40 694.54 Q 556.54 701.39 556.38 708.22 C 556.25 713.81 551.61 716.36 546.86 713.38 Q 506.27 687.92 460.30 660.23 Q 455.85 657.55 451.97 651.54 Q 441.45 635.24 451.04 618.05 C 455.10 610.78 459.57 607.93 467.80 602.55 Q 497.21 583.38 511.13 574.23 Q 519.26 568.90 522.17 565.43 Q 528.16 558.29 530.88 549.24 Q 532.49 543.84 532.56 532.85 Q 532.74 504.32 532.57 480.95 Q 532.49 470.19 533.97 465.16 C 537.02 454.81 543.68 448.52 553.21 443.20 C 565.58 436.31 579.36 427.64 604.59 412.22 Q 615.63 405.47 619.78 404.72 Q 627.12 403.40 634.10 404.81 Q 637.92 405.58 646.79 411.02 Q 695.26 440.77 697.43 442.01 Q 709.21 448.70 712.22 452.61 C 719.03 461.43 720.39 468.29 720.28 480.39 Q 720.09 499.70 720.29 537.72 Q 720.37 553.20 730.67 565.35 Q 733.78 569.01 742.93 574.98 Q 784.13 601.86 788.04 604.32 Q 794.68 608.52 797.53 611.77 C 806.17 621.61 809.39 633.96 803.87 646.42 C 800.44 654.18 796.53 658.14 788.80 662.64 Q 782.43 666.33 779.27 668.29 Q 745.37 689.30 707.83 712.40 Q 704.18 714.64 702.31 714.60 C 697.46 714.48 696.31 710.07 696.38 705.62 C 696.61 692.01 698.07 681.76 691.64 671.58 C 685.84 662.39 677.37 657.62 667.35 651.47 Q 662.00 648.19 663.30 641.82 A 2.97 2.86 -25.5 0 1 663.60 641.02 Z"/>
    <path d="M 522.65 836.49 C 526.14 834.77 530.03 836.48 531.04 840.05 Q 531.32 841.03 531.32 846.17 Q 531.33 888.70 531.24 916.59 C 531.20 929.16 529.59 939.15 521.79 948.88 Q 518.03 953.57 513.99 955.87 Q 508.37 959.06 488.86 970.15 Q 476.04 977.44 470.84 978.49 Q 460.91 980.49 451.51 978.83 Q 446.46 977.94 433.73 971.36 Q 433.28 971.13 405.55 957.06 Q 388.86 948.59 384.94 930.57 C 383.96 926.09 384.46 922.12 382.99 918.06 Q 380.40 910.95 374.60 907.29 Q 351.88 893.01 322.80 876.13 Q 310.08 868.73 305.83 864.31 C 296.17 854.26 292.80 842.24 292.67 828.70 Q 292.13 771.86 292.15 765.40 C 292.18 751.58 290.77 741.53 281.80 731.92 Q 277.37 727.17 268.08 722.08 Q 267.30 721.65 224.58 696.56 Q 215.74 691.37 212.36 687.83 Q 201.53 676.46 201.41 659.37 Q 201.27 637.16 201.37 581.41 C 201.39 570.07 204.35 561.09 211.62 552.55 Q 214.57 549.10 225.75 542.20 Q 229.79 539.69 252.72 524.97 Q 256.60 522.48 258.25 521.30 C 266.61 515.37 276.68 513.81 286.13 516.29 Q 290.28 517.37 299.15 523.09 Q 350.77 556.34 403.95 591.84 Q 413.78 598.40 415.91 599.63 Q 420.22 602.15 421.29 603.76 C 424.24 608.16 424.64 612.64 421.88 617.01 Q 420.66 618.94 416.56 621.64 Q 406.75 628.09 360.26 659.74 Q 351.01 666.04 347.46 670.26 Q 340.89 678.07 338.16 687.96 Q 336.63 693.49 336.64 705.59 Q 336.66 738.15 336.69 784.68 C 336.71 796.07 341.94 807.19 349.54 815.41 Q 352.90 819.05 361.83 824.47 Q 394.44 844.21 426.96 863.74 Q 444.88 874.50 464.67 868.87 Q 469.91 867.39 477.71 862.72 Q 495.83 851.85 518.93 838.51 Q 521.10 837.25 522.65 836.49 Z"/>
    <path d="M 721.93 840.00 C 722.94 836.43 726.83 834.72 730.32 836.44 Q 731.87 837.20 734.04 838.46 Q 757.14 851.83 775.26 862.71 Q 783.06 867.39 788.30 868.88 Q 808.09 874.52 826.03 863.77 Q 858.58 844.26 891.21 824.53 Q 900.15 819.12 903.52 815.48 C 911.12 807.26 916.37 796.14 916.39 784.75 Q 916.46 738.20 916.50 705.63 Q 916.52 693.52 914.99 687.99 Q 912.27 678.09 905.70 670.27 Q 902.16 666.05 892.91 659.74 Q 846.42 628.04 836.61 621.58 Q 832.51 618.88 831.29 616.95 C 828.54 612.58 828.94 608.09 831.89 603.69 Q 832.97 602.08 837.28 599.57 Q 839.41 598.34 849.25 591.78 Q 902.48 556.31 954.14 523.08 Q 963.02 517.37 967.17 516.29 C 976.63 513.82 986.70 515.38 995.06 521.32 Q 996.71 522.50 1000.59 525.00 Q 1023.52 539.74 1027.56 542.25 Q 1038.74 549.17 1041.68 552.62 C 1048.95 561.17 1051.90 570.15 1051.92 581.50 Q 1051.98 637.27 1051.82 659.49 Q 1051.69 676.58 1040.84 687.95 Q 1037.46 691.49 1028.61 696.68 Q 985.86 721.74 985.08 722.17 Q 975.78 727.26 971.34 732.01 C 962.36 741.61 960.95 751.67 960.97 765.49 Q 960.98 771.96 960.40 828.82 C 960.26 842.36 956.88 854.38 947.21 864.43 Q 942.95 868.85 930.22 876.24 Q 901.12 893.11 878.38 907.38 Q 872.57 911.03 869.98 918.15 C 868.50 922.21 869.00 926.18 868.02 930.66 Q 864.08 948.68 847.38 957.14 Q 819.63 971.20 819.18 971.43 Q 806.44 978.00 801.39 978.89 Q 791.98 980.54 782.05 978.53 Q 776.85 977.48 764.03 970.18 Q 744.52 959.07 738.90 955.87 Q 734.86 953.57 731.10 948.88 C 723.30 939.14 721.70 929.14 721.67 916.57 Q 721.60 888.66 721.64 846.12 Q 721.65 840.98 721.93 840.00 Z"/>
    <path d="M 668.18 674.58 C 675.20 679.41 677.97 686.53 677.79 695.00 Q 677.58 704.63 678.03 716.24 C 678.51 728.43 677.13 739.78 665.62 746.64 Q 651.33 755.16 642.83 760.61 C 634.98 765.64 629.26 767.51 621.11 765.73 Q 617.46 764.94 611.47 761.27 Q 591.24 748.87 588.00 747.12 Q 583.39 744.64 581.43 742.30 C 576.24 736.11 574.83 729.12 574.90 721.18 Q 575.05 702.57 575.09 693.01 Q 575.12 686.52 579.64 679.58 Q 582.06 675.89 590.25 670.91 Q 593.12 669.17 609.22 658.67 Q 618.03 652.91 621.65 652.32 Q 627.23 651.41 632.90 652.65 Q 636.50 653.44 642.86 657.64 Q 661.00 669.64 668.18 674.58 Z"/>
    <path d="M 356.23 715.56 C 356.25 712.10 356.07 704.86 357.04 700.17 Q 360.11 685.21 372.93 676.66 Q 384.44 668.98 390.71 664.77 Q 397.02 660.54 400.00 659.83 C 409.33 657.61 418.48 658.01 426.76 663.01 Q 479.26 694.74 541.68 733.41 Q 545.64 735.87 546.68 737.29 C 549.09 740.62 549.83 745.33 547.37 748.93 C 544.48 753.17 538.22 753.29 534.23 750.96 Q 499.83 730.89 477.82 718.20 Q 461.42 708.75 442.81 706.65 C 433.33 705.58 421.38 707.85 413.66 713.54 C 401.90 722.21 398.42 735.11 400.39 749.24 Q 401.35 756.11 405.05 764.83 Q 415.34 789.05 439.15 806.62 Q 460.76 822.58 483.24 809.60 Q 506.44 796.20 530.96 782.46 C 536.27 779.48 543.13 779.36 545.35 786.03 C 546.89 790.67 544.29 797.22 541.68 800.62 Q 540.36 802.32 534.42 805.85 Q 499.90 826.33 476.63 840.34 Q 466.93 846.18 461.18 847.70 Q 447.15 851.42 433.65 844.43 C 427.64 841.31 422.09 837.29 416.33 834.04 Q 411.13 831.10 404.65 826.87 Q 402.51 825.48 381.56 812.84 Q 369.08 805.32 366.07 801.70 C 357.94 791.90 356.15 782.32 356.16 769.75 Q 356.18 724.13 356.23 715.56 Z"/>
    <path d="M 896.89 715.63 Q 896.93 724.20 896.92 769.84 C 896.92 782.42 895.12 792.00 886.98 801.80 Q 883.97 805.42 871.48 812.93 Q 850.51 825.56 848.37 826.95 Q 841.88 831.18 836.68 834.12 C 830.91 837.36 825.36 841.38 819.34 844.50 Q 805.83 851.48 791.80 847.75 Q 786.05 846.23 776.35 840.38 Q 753.08 826.34 718.56 805.83 Q 712.62 802.30 711.30 800.59 C 708.69 797.19 706.09 790.64 707.64 785.99 C 709.86 779.32 716.72 779.45 722.03 782.43 Q 746.56 796.20 769.76 809.62 Q 792.24 822.62 813.87 806.67 Q 837.70 789.11 848.01 764.89 Q 851.72 756.16 852.68 749.29 C 854.67 735.16 851.19 722.25 839.43 713.57 C 831.71 707.87 819.76 705.59 810.28 706.65 Q 791.66 708.74 775.24 718.18 Q 753.21 730.86 718.79 750.92 C 714.79 753.25 708.53 753.12 705.64 748.88 C 703.18 745.27 703.93 740.56 706.34 737.23 Q 707.38 735.81 711.34 733.35 Q 773.82 694.71 826.36 663.01 C 834.65 658.01 843.81 657.62 853.14 659.84 Q 856.12 660.56 862.43 664.79 Q 868.70 669.01 880.21 676.70 Q 893.03 685.26 896.09 700.23 C 897.06 704.92 896.87 712.17 896.89 715.63 Z"/>
    <path d="M 626.53 787.70 Q 633.90 787.70 640.35 784.30 Q 647.44 780.57 665.05 769.69 Q 670.50 766.32 673.61 766.15 Q 680.15 765.78 682.33 773.31 Q 687.29 790.42 688.03 793.25 C 690.01 800.81 686.30 804.31 679.60 808.03 C 667.36 814.82 651.72 824.49 637.42 832.32 Q 632.00 835.29 626.55 835.30 Q 621.10 835.30 615.67 832.33 C 601.37 824.51 585.72 814.86 573.47 808.08 C 566.77 804.37 563.06 800.87 565.03 793.31 Q 565.77 790.48 570.71 773.36 Q 572.88 765.83 579.42 766.20 Q 582.53 766.36 587.99 769.73 Q 605.61 780.59 612.70 784.31 Q 619.15 787.70 626.53 787.70 Z"/>
    <path d="M 626.47 856.15 Q 634.74 856.15 641.11 852.59 Q 649.28 848.02 682.77 828.53 Q 684.11 827.75 686.25 826.87 A 3.90 3.79 29.9 0 1 687.27 826.61 Q 695.96 825.61 697.10 834.71 Q 698.26 843.99 698.36 850.93 Q 698.45 856.90 695.31 862.01 Q 694.05 864.07 685.94 868.68 Q 675.72 874.50 639.77 895.78 Q 633.83 899.30 626.47 899.30 Q 619.11 899.30 613.17 895.78 Q 577.22 874.50 567.00 868.68 Q 558.89 864.07 557.63 862.01 Q 554.49 856.90 554.58 850.93 Q 554.68 843.99 555.84 834.71 Q 556.98 825.61 565.67 826.61 A 3.90 3.79 -29.9 0 1 566.69 826.87 Q 568.83 827.75 570.17 828.53 Q 603.66 848.02 611.83 852.59 Q 618.20 856.15 626.47 856.15 Z"/>
    <path d="M 626.55 920.36 C 634.48 920.36 639.29 918.53 646.27 914.43 Q 674.37 897.93 680.90 894.12 Q 684.01 892.30 685.31 891.92 C 688.97 890.82 692.12 893.70 691.15 897.27 Q 689.83 902.11 686.63 907.63 C 681.68 916.17 677.14 923.40 671.27 931.07 Q 650.00 958.91 634.79 976.55 C 632.76 978.90 629.64 979.71 626.54 979.71 C 623.44 979.71 620.32 978.90 618.29 976.54 Q 603.09 958.90 581.82 931.06 C 575.95 923.39 571.42 916.16 566.47 907.62 Q 563.27 902.10 561.95 897.26 C 560.98 893.69 564.13 890.81 567.79 891.91 Q 569.09 892.29 572.20 894.11 Q 578.73 897.92 606.82 914.42 C 613.81 918.53 618.62 920.36 626.55 920.36 Z"/>
  </g>
</svg>
